<svg width="24" height="12" viewBox="0 0 24 12" fill="none" xmlns="http://www.w3.org/2000/svg">
<rect width="24" height="12" rx="6" fill="white"/>
<path fill-rule="evenodd" clip-rule="evenodd" d="M8.35355 3.64645C8.54882 3.84171 8.54882 4.15829 8.35355 4.35355L6.70711 6L8.35355 7.64645C8.54882 7.84171 8.54882 8.15829 8.35355 8.35355C8.15829 8.54882 7.84171 8.54882 7.64645 8.35355L5.64645 6.35355C5.45118 6.15829 5.45118 5.84171 5.64645 5.64645L7.64645 3.64645C7.84171 3.45118 8.15829 3.45118 8.35355 3.64645Z" fill="#293037"/>
<path fill-rule="evenodd" clip-rule="evenodd" d="M15.6464 3.64645C15.4512 3.84171 15.4512 4.15829 15.6464 4.35355L17.2929 6L15.6464 7.64645C15.4512 7.84171 15.4512 8.15829 15.6464 8.35355C15.8417 8.54882 16.1583 8.54882 16.3536 8.35355L18.3536 6.35355C18.5488 6.15829 18.5488 5.84171 18.3536 5.64645L16.3536 3.64645C16.1583 3.45118 15.8417 3.45118 15.6464 3.64645Z" fill="#293037"/>
</svg>
