<svg width="69" height="26" viewBox="0 0 69 26" fill="none" xmlns="http://www.w3.org/2000/svg">
<path fill-rule="evenodd" clip-rule="evenodd" d="M38.3772 1.5415L45.2336 8.46716C49.0001 12.2945 49.0227 18.4911 45.2336 22.3185C41.4445 26.1458 35.3098 26.1458 31.5208 22.3185C27.7317 18.4911 27.7317 12.2945 31.5208 8.46716L38.3772 1.5415ZM43.728 18.5711L43.1382 17.5493C43.0691 17.4297 42.9612 17.3372 42.8324 17.2873C42.7036 17.2374 42.5617 17.233 42.43 17.2749L41.3166 17.6292C41.1773 17.5269 41.0325 17.4318 40.8829 17.3451C40.7224 17.2512 40.5564 17.167 40.3868 17.0919L40.1372 15.9513C40.1078 15.8163 40.0331 15.6955 39.9256 15.6087C39.8181 15.522 39.6841 15.4747 39.546 15.4745H37.341C37.2029 15.4747 37.0689 15.522 36.9614 15.6087C36.8539 15.6955 36.7792 15.8163 36.7498 15.9513L36.5026 17.0913C36.3415 17.161 36.184 17.2391 36.0308 17.3251C35.872 17.4172 35.7182 17.519 35.5704 17.628L34.4576 17.2737C34.3259 17.2316 34.1838 17.236 34.0548 17.2859C33.9259 17.3358 33.8179 17.4283 33.7489 17.5481L33.0964 18.6784C31.8175 16.3507 32.1568 13.3646 34.1145 11.406L38.3997 7.07747L42.685 11.406C44.576 13.3346 44.9277 16.2596 43.728 18.5711ZM40.8531 21.3016C40.7998 20.7436 40.5542 20.2185 40.1544 19.8188C39.7 19.3644 39.0837 19.1091 38.4411 19.1091C37.7985 19.1091 37.1821 19.3644 36.7277 19.8188C36.3161 20.2304 36.0679 20.7749 36.0248 21.3514C37.5624 22.0115 39.3201 21.9949 40.8531 21.3016Z" fill="#C1844D"/>
<path d="M0 12.2099V8.19751H2.17335V4.51953H6.85442V8.19751H11.6692V12.2099H6.85442V21.2376H11.8698V25.25H2.17335V12.2099H0Z" fill="#293037"/>
<path d="M13.1916 12.2099V8.19751H15.365V4.51953H20.046V8.19751H24.8608V12.2099H20.046V21.2376H25.0615V25.25H15.365V12.2099H13.1916Z" fill="#293037"/>
<path d="M52.5494 5.21343C52.0367 4.70074 51.7804 4.11003 51.7804 3.44131C51.7804 2.77258 52.0367 2.19302 52.5494 1.70263C53.0844 1.18994 53.7197 0.933594 54.4553 0.933594C55.1909 0.933594 55.815 1.18994 56.3277 1.70263C56.8627 2.19302 57.1302 2.77258 57.1302 3.44131C57.1302 4.11003 56.8627 4.70074 56.3277 5.21343C55.815 5.70382 55.1909 5.94902 54.4553 5.94902C53.7197 5.94902 53.0844 5.70382 52.5494 5.21343ZM52.1148 25.1748V8.12237H56.7958V25.1748H52.1148Z" fill="#293037"/>
<path d="M60.4738 25.1748V1.7695H65.1549V21.1625H69V25.1748H60.4738Z" fill="#293037"/>
</svg>
